<?xml version="1.0" encoding="UTF-8" standalone="no"?>
<!DOCTYPE svg PUBLIC "-//W3C//DTD SVG 1.1//EN"
 "http://www.w3.org/Graphics/SVG/1.1/DTD/svg11.dtd">
<!-- Generated by graphviz version 2.40.1 (0)
 -->
<!-- Title: G Pages: 1 -->
<svg width="379pt" height="188pt"
 viewBox="0.00 0.00 379.39 188.00" xmlns="http://www.w3.org/2000/svg" xmlns:xlink="http://www.w3.org/1999/xlink">
<g id="graph0" class="graph" transform="scale(1 1) rotate(0) translate(4 184)">
<title>G</title>
<polygon fill="#ffffff" stroke="transparent" points="-4,4 -4,-184 375.3922,-184 375.3922,4 -4,4"/>
<!-- event -->
<g id="node1" class="node">
<title>event</title>
<ellipse fill="#ffffff" stroke="#ffffff" cx="285.8973" cy="-90" rx="34.394" ry="18"/>
<text text-anchor="middle" x="285.8973" y="-86.3" font-family="Raleway" font-size="14.00" fill="#00cc00">event</text>
</g>
<!-- microcosm -->
<g id="node2" class="node">
<title>microcosm</title>
<ellipse fill="#ffffff" stroke="#ffffff" cx="87.8973" cy="-18" rx="57.6901" ry="18"/>
<text text-anchor="middle" x="87.8973" y="-14.3" font-family="Raleway" font-size="14.00" fill="#00cc00">microcosm</text>
</g>
<!-- event&#45;&gt;microcosm -->
<g id="edge1" class="edge">
<title>event&#45;&gt;microcosm</title>
<path fill="none" stroke="#000000" d="M257.5288,-79.6842C225.7251,-68.1192 173.6294,-49.1753 135.5491,-35.3279"/>
<polygon fill="#000000" stroke="#000000" points="136.2947,-31.8749 125.7006,-31.7466 133.9024,-38.4534 136.2947,-31.8749"/>
</g>
<!-- links -->
<g id="node3" class="node">
<title>links</title>
<ellipse fill="#ffffff" stroke="#ffffff" cx="29.8973" cy="-90" rx="29.795" ry="18"/>
<text text-anchor="middle" x="29.8973" y="-86.3" font-family="Raleway" font-size="14.00" fill="#00cc00">links</text>
</g>
<!-- links&#45;&gt;microcosm -->
<g id="edge6" class="edge">
<title>links&#45;&gt;microcosm</title>
<path fill="none" stroke="#000000" d="M43.0584,-73.6621C50.213,-64.7806 59.2229,-53.5959 67.2861,-43.5864"/>
<polygon fill="#000000" stroke="#000000" points="70.2273,-45.5144 73.775,-35.5312 64.776,-41.1231 70.2273,-45.5144"/>
</g>
<!-- member -->
<g id="node4" class="node">
<title>member</title>
<ellipse fill="#ffffff" stroke="#ffffff" cx="53.8973" cy="-162" rx="47.3916" ry="18"/>
<text text-anchor="middle" x="53.8973" y="-158.3" font-family="Raleway" font-size="14.00" fill="#00cc00">member</text>
</g>
<!-- member&#45;&gt;microcosm -->
<g id="edge3" class="edge">
<title>member&#45;&gt;microcosm</title>
<path fill="none" stroke="#000000" d="M59.1815,-144.0742C62.1929,-133.5989 65.9429,-120.0989 68.8973,-108 73.9404,-87.3476 78.8765,-63.8366 82.4531,-46.025"/>
<polygon fill="#000000" stroke="#000000" points="85.928,-46.4951 84.4427,-36.0049 79.062,-45.1317 85.928,-46.4951"/>
</g>
<!-- user -->
<g id="node6" class="node">
<title>user</title>
<ellipse fill="#ffffff" stroke="#ffffff" cx="177.8973" cy="-90" rx="29.4969" ry="18"/>
<text text-anchor="middle" x="177.8973" y="-86.3" font-family="Raleway" font-size="14.00" fill="#000000">user</text>
</g>
<!-- member&#45;&gt;user -->
<g id="edge2" class="edge">
<title>member&#45;&gt;user</title>
<path fill="none" stroke="#000000" d="M79.8918,-146.9064C99.6878,-135.412 126.9782,-119.5659 147.7349,-107.5137"/>
<polygon fill="#000000" stroke="#000000" points="149.5847,-110.4869 156.4751,-102.4387 146.0697,-104.4334 149.5847,-110.4869"/>
</g>
<!-- attendance -->
<g id="node5" class="node">
<title>attendance</title>
<ellipse fill="#ffffff" stroke="#ffffff" cx="312.8973" cy="-162" rx="58.4896" ry="18"/>
<text text-anchor="middle" x="312.8973" y="-158.3" font-family="Raleway" font-size="14.00" fill="#00cc00">attendance</text>
</g>
<!-- attendance&#45;&gt;event -->
<g id="edge5" class="edge">
<title>attendance&#45;&gt;event</title>
<path fill="none" stroke="#000000" d="M306.0841,-143.8314C303.0876,-135.8406 299.503,-126.2819 296.1916,-117.4514"/>
<polygon fill="#000000" stroke="#000000" points="299.4033,-116.0478 292.6149,-107.9134 292.849,-118.5057 299.4033,-116.0478"/>
</g>
<!-- attendance&#45;&gt;user -->
<g id="edge4" class="edge">
<title>attendance&#45;&gt;user</title>
<path fill="none" stroke="#000000" d="M283.6044,-146.3771C261.6195,-134.6518 231.5718,-118.6264 209.1307,-106.6578"/>
<polygon fill="#000000" stroke="#000000" points="210.4951,-103.4189 200.0245,-101.8012 207.201,-109.5953 210.4951,-103.4189"/>
</g>
<!-- diary_entry -->
<g id="node7" class="node">
<title>diary_entry</title>
<ellipse fill="#ffffff" stroke="#ffffff" cx="177.8973" cy="-162" rx="58.4896" ry="18"/>
<text text-anchor="middle" x="177.8973" y="-158.3" font-family="Raleway" font-size="14.00" fill="#000000">diary_entry</text>
</g>
<!-- diary_entry&#45;&gt;user -->
<g id="edge7" class="edge">
<title>diary_entry&#45;&gt;user</title>
<path fill="none" stroke="#000000" d="M177.8973,-143.8314C177.8973,-136.131 177.8973,-126.9743 177.8973,-118.4166"/>
<polygon fill="#000000" stroke="#000000" points="181.3974,-118.4132 177.8973,-108.4133 174.3974,-118.4133 181.3974,-118.4132"/>
</g>
</g>
</svg>
